<svg xmlns="http://www.w3.org/2000/svg" xmlns:xlink="http://www.w3.org/1999/xlink" xmlns:sketch="http://www.bohemiancoding.com/sketch/ns" viewBox="0 0 512 640" version="1.1" x="0px" y="0px"><title>Slice 1</title><description>Created with Sketch (http://www.bohemiancoding.com/sketch)</description><g fill="#000000" fill-rule="evenodd"><path d="M128,208 C128,110.797879 206.797879,32 304,32 C401.202121,32 480,110.797879 480,208 C480,305.202121 401.202121,384 304,384 C271.824119,384 241.664874,375.365764 215.712397,360.287603 L96,480 C60.6538843,480 32,451.346224 32,416 L151.712397,296.287603 C136.634236,270.335126 128,240.175881 128,208 Z M416,208 C416,146.144105 365.855895,96 304,96 C242.144105,96 192,146.144105 192,208 C192,269.855895 242.144105,320 304,320 C365.855895,320 416,269.855895 416,208 Z M416,208" fill="#000000"/></g><text x="0" y="527" fill="#000000" font-size="5px" font-weight="bold" font-family="'Helvetica Neue', Helvetica, Arial-Unicode, Arial, Sans-serif">Created by Filip Malinowski</text><text x="0" y="532" fill="#000000" font-size="5px" font-weight="bold" font-family="'Helvetica Neue', Helvetica, Arial-Unicode, Arial, Sans-serif">from the Noun Project</text></svg>